<mxfile host="app.diagrams.net" modified="2024-05-22T06:48:05.638Z" agent="Mozilla/5.0 (Windows NT 10.0; Win64; x64) AppleWebKit/537.36 (KHTML, like Gecko) Chrome/123.0.0.0 Safari/537.36 OPR/109.0.0.0" etag="weclhFTXv7xNjMiwCY_8" version="24.4.4" type="device">
  <diagram name="Страница — 1" id="PyvXBYscD4rfR-S77jLz">
    <mxGraphModel dx="3483" dy="1102" grid="1" gridSize="10" guides="1" tooltips="1" connect="1" arrows="1" fold="1" page="1" pageScale="1" pageWidth="827" pageHeight="1169" math="0" shadow="0">
      <root>
        <mxCell id="0" />
        <mxCell id="1" parent="0" />
        <mxCell id="Rm3MgVcvs-Dru-C2N3fW-3" value="&lt;font style=&quot;font-size: 19px;&quot;&gt;Обработка объектов бизнес процесса&lt;/font&gt;" style="rounded=0;whiteSpace=wrap;html=1;" vertex="1" parent="1">
          <mxGeometry x="280" y="230" width="250" height="120" as="geometry" />
        </mxCell>
        <mxCell id="Rm3MgVcvs-Dru-C2N3fW-4" value="" style="endArrow=classic;html=1;rounded=0;entryX=0;entryY=0.25;entryDx=0;entryDy=0;" edge="1" parent="1">
          <mxGeometry width="50" height="50" relative="1" as="geometry">
            <mxPoint x="80" y="289.5" as="sourcePoint" />
            <mxPoint x="280" y="289.5" as="targetPoint" />
          </mxGeometry>
        </mxCell>
        <mxCell id="Rm3MgVcvs-Dru-C2N3fW-5" value="Данные" style="edgeLabel;html=1;align=center;verticalAlign=middle;resizable=0;points=[];" vertex="1" connectable="0" parent="Rm3MgVcvs-Dru-C2N3fW-4">
          <mxGeometry x="-0.244" y="2" relative="1" as="geometry">
            <mxPoint x="24" y="-18" as="offset" />
          </mxGeometry>
        </mxCell>
        <mxCell id="Rm3MgVcvs-Dru-C2N3fW-6" value="" style="endArrow=classic;html=1;rounded=0;entryX=0.25;entryY=0;entryDx=0;entryDy=0;" edge="1" parent="1" target="Rm3MgVcvs-Dru-C2N3fW-3">
          <mxGeometry width="50" height="50" relative="1" as="geometry">
            <mxPoint x="343" y="80" as="sourcePoint" />
            <mxPoint x="290" y="270" as="targetPoint" />
          </mxGeometry>
        </mxCell>
        <mxCell id="Rm3MgVcvs-Dru-C2N3fW-7" value="Приложение для пользователя" style="edgeLabel;html=1;align=center;verticalAlign=middle;resizable=0;points=[];" vertex="1" connectable="0" parent="Rm3MgVcvs-Dru-C2N3fW-6">
          <mxGeometry x="-0.244" y="2" relative="1" as="geometry">
            <mxPoint x="-95" y="-10" as="offset" />
          </mxGeometry>
        </mxCell>
        <mxCell id="Rm3MgVcvs-Dru-C2N3fW-8" value="" style="endArrow=classic;html=1;rounded=0;entryX=0.75;entryY=0;entryDx=0;entryDy=0;" edge="1" parent="1" target="Rm3MgVcvs-Dru-C2N3fW-3">
          <mxGeometry width="50" height="50" relative="1" as="geometry">
            <mxPoint x="468" y="80" as="sourcePoint" />
            <mxPoint x="480" y="200" as="targetPoint" />
          </mxGeometry>
        </mxCell>
        <mxCell id="Rm3MgVcvs-Dru-C2N3fW-9" value="Удалённый сервер" style="edgeLabel;html=1;align=center;verticalAlign=middle;resizable=0;points=[];" vertex="1" connectable="0" parent="Rm3MgVcvs-Dru-C2N3fW-8">
          <mxGeometry x="-0.244" y="2" relative="1" as="geometry">
            <mxPoint x="50" y="-10" as="offset" />
          </mxGeometry>
        </mxCell>
        <mxCell id="Rm3MgVcvs-Dru-C2N3fW-10" value="" style="endArrow=classic;html=1;rounded=0;entryX=0.25;entryY=1;entryDx=0;entryDy=0;" edge="1" parent="1" target="Rm3MgVcvs-Dru-C2N3fW-3">
          <mxGeometry width="50" height="50" relative="1" as="geometry">
            <mxPoint x="343" y="480" as="sourcePoint" />
            <mxPoint x="363" y="250" as="targetPoint" />
          </mxGeometry>
        </mxCell>
        <mxCell id="Rm3MgVcvs-Dru-C2N3fW-11" value="Пользователь с привилегиями&lt;br&gt;(менеджер/администратор)" style="edgeLabel;html=1;align=center;verticalAlign=middle;resizable=0;points=[];" vertex="1" connectable="0" parent="Rm3MgVcvs-Dru-C2N3fW-10">
          <mxGeometry x="-0.244" y="2" relative="1" as="geometry">
            <mxPoint x="-91" y="-31" as="offset" />
          </mxGeometry>
        </mxCell>
        <mxCell id="Rm3MgVcvs-Dru-C2N3fW-12" value="" style="endArrow=classic;html=1;rounded=0;entryX=0.75;entryY=1;entryDx=0;entryDy=0;" edge="1" parent="1" target="Rm3MgVcvs-Dru-C2N3fW-3">
          <mxGeometry width="50" height="50" relative="1" as="geometry">
            <mxPoint x="468" y="480" as="sourcePoint" />
            <mxPoint x="480" y="380" as="targetPoint" />
          </mxGeometry>
        </mxCell>
        <mxCell id="Rm3MgVcvs-Dru-C2N3fW-13" value="База данных" style="edgeLabel;html=1;align=center;verticalAlign=middle;resizable=0;points=[];" vertex="1" connectable="0" parent="Rm3MgVcvs-Dru-C2N3fW-12">
          <mxGeometry x="-0.244" y="2" relative="1" as="geometry">
            <mxPoint x="44" y="-31" as="offset" />
          </mxGeometry>
        </mxCell>
        <mxCell id="Rm3MgVcvs-Dru-C2N3fW-14" value="" style="endArrow=classic;html=1;rounded=0;entryX=0;entryY=0.25;entryDx=0;entryDy=0;" edge="1" parent="1">
          <mxGeometry width="50" height="50" relative="1" as="geometry">
            <mxPoint x="530" y="289.5" as="sourcePoint" />
            <mxPoint x="730" y="289.5" as="targetPoint" />
          </mxGeometry>
        </mxCell>
        <mxCell id="Rm3MgVcvs-Dru-C2N3fW-15" value="Обновление/добавление&lt;div&gt;удаление/просмотр информации&lt;/div&gt;" style="edgeLabel;html=1;align=center;verticalAlign=middle;resizable=0;points=[];" vertex="1" connectable="0" parent="Rm3MgVcvs-Dru-C2N3fW-14">
          <mxGeometry x="-0.244" y="2" relative="1" as="geometry">
            <mxPoint x="24" y="-18" as="offset" />
          </mxGeometry>
        </mxCell>
        <mxCell id="Rm3MgVcvs-Dru-C2N3fW-16" value="" style="endArrow=none;html=1;rounded=0;" edge="1" parent="1">
          <mxGeometry width="50" height="50" relative="1" as="geometry">
            <mxPoint x="20" y="520" as="sourcePoint" />
            <mxPoint x="800" y="520" as="targetPoint" />
          </mxGeometry>
        </mxCell>
        <mxCell id="Rm3MgVcvs-Dru-C2N3fW-17" value="&lt;div&gt;&quot;Авторизация в системе&quot;&lt;/div&gt;Принятие запроса клиента/пользователя" style="rounded=0;whiteSpace=wrap;html=1;" vertex="1" parent="1">
          <mxGeometry x="-90" y="890" width="150" height="80" as="geometry" />
        </mxCell>
        <mxCell id="Rm3MgVcvs-Dru-C2N3fW-18" value="" style="endArrow=classic;html=1;rounded=0;entryX=0;entryY=0.25;entryDx=0;entryDy=0;" edge="1" parent="1">
          <mxGeometry width="50" height="50" relative="1" as="geometry">
            <mxPoint x="-230" y="930" as="sourcePoint" />
            <mxPoint x="-90" y="929.5" as="targetPoint" />
          </mxGeometry>
        </mxCell>
        <mxCell id="Rm3MgVcvs-Dru-C2N3fW-19" value="Данные" style="edgeLabel;html=1;align=center;verticalAlign=middle;resizable=0;points=[];" vertex="1" connectable="0" parent="Rm3MgVcvs-Dru-C2N3fW-18">
          <mxGeometry x="-0.244" y="2" relative="1" as="geometry">
            <mxPoint x="24" y="-18" as="offset" />
          </mxGeometry>
        </mxCell>
        <mxCell id="Rm3MgVcvs-Dru-C2N3fW-20" value="Навигация в меню для поиска нужной страницы" style="rounded=0;whiteSpace=wrap;html=1;" vertex="1" parent="1">
          <mxGeometry x="140" y="990" width="170" height="80" as="geometry" />
        </mxCell>
        <mxCell id="Rm3MgVcvs-Dru-C2N3fW-21" value="Взаимодействие с данными&lt;div&gt;(выполнение запроса)&lt;/div&gt;" style="rounded=0;whiteSpace=wrap;html=1;" vertex="1" parent="1">
          <mxGeometry x="970" y="1169" width="170" height="80" as="geometry" />
        </mxCell>
        <mxCell id="Rm3MgVcvs-Dru-C2N3fW-22" value="Обработка запроса на сервере с базой данных" style="rounded=0;whiteSpace=wrap;html=1;" vertex="1" parent="1">
          <mxGeometry x="400" y="1070" width="170" height="80" as="geometry" />
        </mxCell>
        <mxCell id="Rm3MgVcvs-Dru-C2N3fW-25" value="Показ результата" style="rounded=0;whiteSpace=wrap;html=1;" vertex="1" parent="1">
          <mxGeometry x="700" y="1130" width="170" height="80" as="geometry" />
        </mxCell>
        <mxCell id="Rm3MgVcvs-Dru-C2N3fW-26" value="" style="endArrow=classic;html=1;rounded=0;entryX=0.471;entryY=0.002;entryDx=0;entryDy=0;entryPerimeter=0;" edge="1" parent="1" target="Rm3MgVcvs-Dru-C2N3fW-17">
          <mxGeometry width="50" height="50" relative="1" as="geometry">
            <mxPoint x="160" y="550" as="sourcePoint" />
            <mxPoint x="160" y="700" as="targetPoint" />
            <Array as="points">
              <mxPoint x="160" y="800" />
              <mxPoint x="-19" y="800" />
            </Array>
          </mxGeometry>
        </mxCell>
        <mxCell id="Rm3MgVcvs-Dru-C2N3fW-29" value="&lt;font style=&quot;font-size: 21px;&quot;&gt;Приложение для пользователя&lt;/font&gt;" style="text;html=1;align=center;verticalAlign=middle;whiteSpace=wrap;rounded=0;" vertex="1" parent="1">
          <mxGeometry x="170" y="580" width="200" height="50" as="geometry" />
        </mxCell>
        <mxCell id="Rm3MgVcvs-Dru-C2N3fW-30" value="" style="endArrow=classic;html=1;rounded=0;entryX=0.5;entryY=0;entryDx=0;entryDy=0;" edge="1" parent="1" target="Rm3MgVcvs-Dru-C2N3fW-20">
          <mxGeometry width="50" height="50" relative="1" as="geometry">
            <mxPoint x="160" y="550" as="sourcePoint" />
            <mxPoint x="-10" y="900" as="targetPoint" />
            <Array as="points">
              <mxPoint x="160" y="800" />
              <mxPoint x="225" y="800" />
            </Array>
          </mxGeometry>
        </mxCell>
        <mxCell id="Rm3MgVcvs-Dru-C2N3fW-31" value="" style="endArrow=classic;html=1;rounded=0;entryX=0.5;entryY=0;entryDx=0;entryDy=0;" edge="1" parent="1" target="Rm3MgVcvs-Dru-C2N3fW-21">
          <mxGeometry width="50" height="50" relative="1" as="geometry">
            <mxPoint x="160" y="550" as="sourcePoint" />
            <mxPoint x="205" y="990" as="targetPoint" />
            <Array as="points">
              <mxPoint x="160" y="800" />
              <mxPoint x="1055" y="800" />
            </Array>
          </mxGeometry>
        </mxCell>
        <mxCell id="Rm3MgVcvs-Dru-C2N3fW-32" value="" style="endArrow=classic;html=1;rounded=0;entryX=0.5;entryY=0;entryDx=0;entryDy=0;" edge="1" parent="1" target="Rm3MgVcvs-Dru-C2N3fW-25">
          <mxGeometry width="50" height="50" relative="1" as="geometry">
            <mxPoint x="160" y="550" as="sourcePoint" />
            <mxPoint x="445" y="1070" as="targetPoint" />
            <Array as="points">
              <mxPoint x="160" y="800" />
              <mxPoint x="785" y="800" />
            </Array>
          </mxGeometry>
        </mxCell>
        <mxCell id="Rm3MgVcvs-Dru-C2N3fW-33" value="" style="endArrow=classic;html=1;rounded=0;entryX=0.75;entryY=0;entryDx=0;entryDy=0;fillColor=#fa6800;strokeColor=#C73500;" edge="1" parent="1" target="Rm3MgVcvs-Dru-C2N3fW-17">
          <mxGeometry width="50" height="50" relative="1" as="geometry">
            <mxPoint x="610" y="550" as="sourcePoint" />
            <mxPoint x="610" y="700" as="targetPoint" />
            <Array as="points">
              <mxPoint x="610" y="850" />
              <mxPoint x="23" y="850" />
            </Array>
          </mxGeometry>
        </mxCell>
        <mxCell id="Rm3MgVcvs-Dru-C2N3fW-35" value="&lt;span style=&quot;text-wrap: nowrap; background-color: rgb(255, 255, 255);&quot;&gt;&lt;font style=&quot;font-size: 21px;&quot;&gt;Удалённый сервер&lt;/font&gt;&lt;/span&gt;" style="text;html=1;align=center;verticalAlign=middle;whiteSpace=wrap;rounded=0;" vertex="1" parent="1">
          <mxGeometry x="627" y="580" width="200" height="50" as="geometry" />
        </mxCell>
        <mxCell id="Rm3MgVcvs-Dru-C2N3fW-36" style="edgeStyle=orthogonalEdgeStyle;rounded=0;orthogonalLoop=1;jettySize=auto;html=1;exitX=0.5;exitY=1;exitDx=0;exitDy=0;" edge="1" parent="1" source="Rm3MgVcvs-Dru-C2N3fW-35" target="Rm3MgVcvs-Dru-C2N3fW-35">
          <mxGeometry relative="1" as="geometry" />
        </mxCell>
        <mxCell id="Rm3MgVcvs-Dru-C2N3fW-37" value="" style="endArrow=classic;html=1;rounded=0;entryX=0.5;entryY=0;entryDx=0;entryDy=0;fillColor=#fa6800;strokeColor=#C73500;" edge="1" parent="1" target="Rm3MgVcvs-Dru-C2N3fW-22">
          <mxGeometry width="50" height="50" relative="1" as="geometry">
            <mxPoint x="610" y="550" as="sourcePoint" />
            <mxPoint x="23" y="890" as="targetPoint" />
            <Array as="points">
              <mxPoint x="610" y="850" />
              <mxPoint x="485" y="850" />
            </Array>
          </mxGeometry>
        </mxCell>
        <mxCell id="Rm3MgVcvs-Dru-C2N3fW-38" value="" style="endArrow=classic;html=1;rounded=0;entryX=0.75;entryY=0;entryDx=0;entryDy=0;fillColor=#fa6800;strokeColor=#C73500;" edge="1" parent="1" target="Rm3MgVcvs-Dru-C2N3fW-21">
          <mxGeometry width="50" height="50" relative="1" as="geometry">
            <mxPoint x="610" y="550" as="sourcePoint" />
            <mxPoint x="23" y="890" as="targetPoint" />
            <Array as="points">
              <mxPoint x="610" y="850" />
              <mxPoint x="1098" y="850" />
              <mxPoint x="1098" y="1000" />
            </Array>
          </mxGeometry>
        </mxCell>
        <mxCell id="Rm3MgVcvs-Dru-C2N3fW-40" value="Обработка запроса на сервере с базой данных" style="rounded=0;whiteSpace=wrap;html=1;" vertex="1" parent="1">
          <mxGeometry x="1250" y="1210" width="170" height="80" as="geometry" />
        </mxCell>
        <mxCell id="Rm3MgVcvs-Dru-C2N3fW-41" value="Показ результата" style="rounded=0;whiteSpace=wrap;html=1;" vertex="1" parent="1">
          <mxGeometry x="1520" y="1270" width="170" height="80" as="geometry" />
        </mxCell>
        <mxCell id="Rm3MgVcvs-Dru-C2N3fW-42" value="" style="endArrow=classic;html=1;rounded=0;entryX=0.75;entryY=0;entryDx=0;entryDy=0;fillColor=#fa6800;strokeColor=#C73500;" edge="1" parent="1" target="Rm3MgVcvs-Dru-C2N3fW-40">
          <mxGeometry width="50" height="50" relative="1" as="geometry">
            <mxPoint x="610" y="550" as="sourcePoint" />
            <mxPoint x="1098" y="1169" as="targetPoint" />
            <Array as="points">
              <mxPoint x="610" y="850" />
              <mxPoint x="1098" y="850" />
              <mxPoint x="1378" y="850" />
            </Array>
          </mxGeometry>
        </mxCell>
        <mxCell id="Rm3MgVcvs-Dru-C2N3fW-43" value="" style="endArrow=classic;html=1;rounded=0;entryX=0.25;entryY=0;entryDx=0;entryDy=0;" edge="1" parent="1" target="Rm3MgVcvs-Dru-C2N3fW-41">
          <mxGeometry width="50" height="50" relative="1" as="geometry">
            <mxPoint x="160" y="550" as="sourcePoint" />
            <mxPoint x="1055" y="1169" as="targetPoint" />
            <Array as="points">
              <mxPoint x="160" y="800" />
              <mxPoint x="1560" y="800" />
            </Array>
          </mxGeometry>
        </mxCell>
        <mxCell id="Rm3MgVcvs-Dru-C2N3fW-44" value="" style="endArrow=classic;html=1;rounded=0;entryX=0.25;entryY=1;entryDx=0;entryDy=0;fillColor=#dae8fc;strokeColor=#6c8ebf;gradientColor=#7ea6e0;" edge="1" parent="1" target="Rm3MgVcvs-Dru-C2N3fW-17">
          <mxGeometry width="50" height="50" relative="1" as="geometry">
            <mxPoint x="278.33" y="1720" as="sourcePoint" />
            <mxPoint x="278.33" y="1590" as="targetPoint" />
            <Array as="points">
              <mxPoint x="280" y="1510" />
              <mxPoint x="-60" y="1510" />
            </Array>
          </mxGeometry>
        </mxCell>
        <mxCell id="Rm3MgVcvs-Dru-C2N3fW-46" value="&lt;font style=&quot;font-size: 21px;&quot;&gt;&lt;font style=&quot;font-size: 21px;&quot;&gt;&lt;span style=&quot;text-wrap: nowrap; background-color: rgb(255, 255, 255);&quot;&gt;Пользователь с привилегиями&lt;/span&gt;&lt;br style=&quot;text-wrap: nowrap;&quot;&gt;&lt;/font&gt;&lt;span style=&quot;text-wrap: nowrap; background-color: rgb(255, 255, 255);&quot;&gt;&lt;font style=&quot;font-size: 21px;&quot;&gt;(менеджер/администратор)&lt;/font&gt;&lt;/span&gt;&lt;/font&gt;" style="text;html=1;align=center;verticalAlign=middle;whiteSpace=wrap;rounded=0;" vertex="1" parent="1">
          <mxGeometry x="-60" y="1620" width="328.33" height="50" as="geometry" />
        </mxCell>
        <mxCell id="Rm3MgVcvs-Dru-C2N3fW-47" value="" style="endArrow=classic;html=1;rounded=0;entryX=0.25;entryY=1;entryDx=0;entryDy=0;fillColor=#dae8fc;gradientColor=#7ea6e0;strokeColor=#6c8ebf;" edge="1" parent="1" target="Rm3MgVcvs-Dru-C2N3fW-20">
          <mxGeometry width="50" height="50" relative="1" as="geometry">
            <mxPoint x="278.33" y="1720" as="sourcePoint" />
            <mxPoint x="-52" y="970" as="targetPoint" />
            <Array as="points">
              <mxPoint x="280" y="1510" />
              <mxPoint x="183" y="1510" />
            </Array>
          </mxGeometry>
        </mxCell>
        <mxCell id="Rm3MgVcvs-Dru-C2N3fW-48" value="" style="endArrow=classic;html=1;rounded=0;entryX=0.25;entryY=1;entryDx=0;entryDy=0;fillColor=#dae8fc;gradientColor=#7ea6e0;strokeColor=#6c8ebf;" edge="1" parent="1" target="Rm3MgVcvs-Dru-C2N3fW-21">
          <mxGeometry width="50" height="50" relative="1" as="geometry">
            <mxPoint x="278.33" y="1720" as="sourcePoint" />
            <mxPoint x="183" y="1070" as="targetPoint" />
            <Array as="points">
              <mxPoint x="280" y="1510" />
              <mxPoint x="1013" y="1510" />
            </Array>
          </mxGeometry>
        </mxCell>
        <mxCell id="Rm3MgVcvs-Dru-C2N3fW-49" value="" style="endArrow=classic;html=1;rounded=0;entryX=0.25;entryY=1;entryDx=0;entryDy=0;fillColor=#dae8fc;gradientColor=#7ea6e0;strokeColor=#6c8ebf;" edge="1" parent="1" target="Rm3MgVcvs-Dru-C2N3fW-25">
          <mxGeometry width="50" height="50" relative="1" as="geometry">
            <mxPoint x="280" y="1720" as="sourcePoint" />
            <mxPoint x="444.67" y="1150" as="targetPoint" />
            <Array as="points">
              <mxPoint x="281.67" y="1510" />
              <mxPoint x="743" y="1510" />
            </Array>
          </mxGeometry>
        </mxCell>
        <mxCell id="Rm3MgVcvs-Dru-C2N3fW-50" value="" style="endArrow=classic;html=1;rounded=0;entryX=0.25;entryY=1;entryDx=0;entryDy=0;fillColor=#dae8fc;gradientColor=#7ea6e0;strokeColor=#6c8ebf;" edge="1" parent="1" target="Rm3MgVcvs-Dru-C2N3fW-41">
          <mxGeometry width="50" height="50" relative="1" as="geometry">
            <mxPoint x="280" y="1720" as="sourcePoint" />
            <mxPoint x="1014.67" y="1249" as="targetPoint" />
            <Array as="points">
              <mxPoint x="281.67" y="1510" />
              <mxPoint x="1563" y="1510" />
            </Array>
          </mxGeometry>
        </mxCell>
        <mxCell id="Rm3MgVcvs-Dru-C2N3fW-51" value="" style="endArrow=classic;html=1;rounded=0;entryX=0.75;entryY=1;entryDx=0;entryDy=0;fillColor=#d5e8d4;strokeColor=#82b366;gradientColor=#97d077;" edge="1" parent="1" target="Rm3MgVcvs-Dru-C2N3fW-17">
          <mxGeometry width="50" height="50" relative="1" as="geometry">
            <mxPoint x="1200" y="1720" as="sourcePoint" />
            <mxPoint x="1200" y="1590" as="targetPoint" />
            <Array as="points">
              <mxPoint x="1200" y="1380" />
              <mxPoint x="23" y="1380" />
            </Array>
          </mxGeometry>
        </mxCell>
        <mxCell id="Rm3MgVcvs-Dru-C2N3fW-53" value="&lt;font style=&quot;font-size: 21px;&quot;&gt;База Данных&lt;/font&gt;" style="text;html=1;align=center;verticalAlign=middle;whiteSpace=wrap;rounded=0;" vertex="1" parent="1">
          <mxGeometry x="1210" y="1625" width="190" height="40" as="geometry" />
        </mxCell>
        <mxCell id="Rm3MgVcvs-Dru-C2N3fW-54" value="" style="endArrow=classic;html=1;rounded=0;entryX=0.75;entryY=1;entryDx=0;entryDy=0;fillColor=#d5e8d4;strokeColor=#82b366;gradientColor=#97d077;" edge="1" parent="1" target="Rm3MgVcvs-Dru-C2N3fW-22">
          <mxGeometry width="50" height="50" relative="1" as="geometry">
            <mxPoint x="1200" y="1720" as="sourcePoint" />
            <mxPoint x="10" y="970" as="targetPoint" />
            <Array as="points">
              <mxPoint x="1200" y="1380" />
              <mxPoint x="528" y="1380" />
            </Array>
          </mxGeometry>
        </mxCell>
        <mxCell id="Rm3MgVcvs-Dru-C2N3fW-55" value="" style="endArrow=classic;html=1;rounded=0;entryX=0.25;entryY=1;entryDx=0;entryDy=0;fillColor=#d5e8d4;strokeColor=#82b366;gradientColor=#97d077;" edge="1" parent="1" target="Rm3MgVcvs-Dru-C2N3fW-40">
          <mxGeometry width="50" height="50" relative="1" as="geometry">
            <mxPoint x="1200" y="1720" as="sourcePoint" />
            <mxPoint x="530" y="1150" as="targetPoint" />
            <Array as="points">
              <mxPoint x="1200" y="1380" />
              <mxPoint x="1293" y="1380" />
            </Array>
          </mxGeometry>
        </mxCell>
        <mxCell id="Rm3MgVcvs-Dru-C2N3fW-56" value="" style="endArrow=classic;html=1;rounded=0;exitX=1;exitY=0.25;exitDx=0;exitDy=0;entryX=0;entryY=0.75;entryDx=0;entryDy=0;" edge="1" parent="1" source="Rm3MgVcvs-Dru-C2N3fW-17" target="Rm3MgVcvs-Dru-C2N3fW-20">
          <mxGeometry width="50" height="50" relative="1" as="geometry">
            <mxPoint x="130" y="960" as="sourcePoint" />
            <mxPoint x="180" y="910" as="targetPoint" />
            <Array as="points">
              <mxPoint x="100" y="910" />
              <mxPoint x="100" y="1050" />
            </Array>
          </mxGeometry>
        </mxCell>
        <mxCell id="Rm3MgVcvs-Dru-C2N3fW-57" value="" style="endArrow=classic;html=1;rounded=0;exitX=1;exitY=0.25;exitDx=0;exitDy=0;entryX=0;entryY=0.75;entryDx=0;entryDy=0;" edge="1" parent="1" source="Rm3MgVcvs-Dru-C2N3fW-20" target="Rm3MgVcvs-Dru-C2N3fW-22">
          <mxGeometry width="50" height="50" relative="1" as="geometry">
            <mxPoint x="70" y="940" as="sourcePoint" />
            <mxPoint x="150" y="1040" as="targetPoint" />
            <Array as="points">
              <mxPoint x="380" y="1010" />
              <mxPoint x="380" y="1130" />
            </Array>
          </mxGeometry>
        </mxCell>
        <mxCell id="Rm3MgVcvs-Dru-C2N3fW-58" value="" style="endArrow=classic;html=1;rounded=0;exitX=1;exitY=0.25;exitDx=0;exitDy=0;entryX=0;entryY=0.75;entryDx=0;entryDy=0;" edge="1" parent="1" source="Rm3MgVcvs-Dru-C2N3fW-22" target="Rm3MgVcvs-Dru-C2N3fW-25">
          <mxGeometry width="50" height="50" relative="1" as="geometry">
            <mxPoint x="320" y="1040" as="sourcePoint" />
            <mxPoint x="410" y="1120" as="targetPoint" />
            <Array as="points">
              <mxPoint x="660" y="1090" />
              <mxPoint x="660" y="1190" />
            </Array>
          </mxGeometry>
        </mxCell>
        <mxCell id="Rm3MgVcvs-Dru-C2N3fW-59" value="" style="endArrow=classic;html=1;rounded=0;exitX=1;exitY=0.25;exitDx=0;exitDy=0;entryX=0;entryY=0.75;entryDx=0;entryDy=0;" edge="1" parent="1" source="Rm3MgVcvs-Dru-C2N3fW-25" target="Rm3MgVcvs-Dru-C2N3fW-21">
          <mxGeometry width="50" height="50" relative="1" as="geometry">
            <mxPoint x="580" y="1120" as="sourcePoint" />
            <mxPoint x="710" y="1180" as="targetPoint" />
            <Array as="points">
              <mxPoint x="940" y="1150" />
              <mxPoint x="940" y="1229" />
            </Array>
          </mxGeometry>
        </mxCell>
        <mxCell id="Rm3MgVcvs-Dru-C2N3fW-62" value="" style="endArrow=classic;html=1;rounded=0;exitX=1;exitY=0.25;exitDx=0;exitDy=0;entryX=0;entryY=0.75;entryDx=0;entryDy=0;" edge="1" parent="1" source="Rm3MgVcvs-Dru-C2N3fW-21" target="Rm3MgVcvs-Dru-C2N3fW-40">
          <mxGeometry width="50" height="50" relative="1" as="geometry">
            <mxPoint x="880" y="1160" as="sourcePoint" />
            <mxPoint x="980" y="1239" as="targetPoint" />
            <Array as="points">
              <mxPoint x="1220" y="1189" />
              <mxPoint x="1220" y="1270" />
            </Array>
          </mxGeometry>
        </mxCell>
        <mxCell id="Rm3MgVcvs-Dru-C2N3fW-63" value="" style="endArrow=classic;html=1;rounded=0;exitX=1;exitY=0.25;exitDx=0;exitDy=0;entryX=0;entryY=0.75;entryDx=0;entryDy=0;" edge="1" parent="1" source="Rm3MgVcvs-Dru-C2N3fW-40" target="Rm3MgVcvs-Dru-C2N3fW-41">
          <mxGeometry width="50" height="50" relative="1" as="geometry">
            <mxPoint x="1150" y="1199" as="sourcePoint" />
            <mxPoint x="1260" y="1280" as="targetPoint" />
            <Array as="points">
              <mxPoint x="1460" y="1230" />
              <mxPoint x="1460" y="1330" />
            </Array>
          </mxGeometry>
        </mxCell>
        <mxCell id="Rm3MgVcvs-Dru-C2N3fW-64" value="Устный/письменный запрос" style="text;html=1;align=center;verticalAlign=middle;whiteSpace=wrap;rounded=0;" vertex="1" parent="1">
          <mxGeometry x="30" y="1050" width="104" height="50" as="geometry" />
        </mxCell>
        <mxCell id="Rm3MgVcvs-Dru-C2N3fW-65" value="Устный/письменный запрос" style="text;html=1;align=center;verticalAlign=middle;whiteSpace=wrap;rounded=0;" vertex="1" parent="1">
          <mxGeometry x="290" y="1085" width="104" height="50" as="geometry" />
        </mxCell>
        <mxCell id="Rm3MgVcvs-Dru-C2N3fW-66" value="Актуализованный запрос" style="text;html=1;align=center;verticalAlign=middle;whiteSpace=wrap;rounded=0;" vertex="1" parent="1">
          <mxGeometry x="850" y="1225" width="104" height="50" as="geometry" />
        </mxCell>
        <mxCell id="Rm3MgVcvs-Dru-C2N3fW-67" value="Устный/письменный запрос с найденными данными" style="text;html=1;align=center;verticalAlign=middle;whiteSpace=wrap;rounded=0;" vertex="1" parent="1">
          <mxGeometry x="560" y="1190" width="134" height="50" as="geometry" />
        </mxCell>
        <mxCell id="Rm3MgVcvs-Dru-C2N3fW-68" value="Итоговый запрос" style="text;html=1;align=center;verticalAlign=middle;whiteSpace=wrap;rounded=0;" vertex="1" parent="1">
          <mxGeometry x="1130" y="1270" width="104" height="50" as="geometry" />
        </mxCell>
        <mxCell id="Rm3MgVcvs-Dru-C2N3fW-69" value="Результат выполнения запроса" style="text;html=1;align=center;verticalAlign=middle;whiteSpace=wrap;rounded=0;" vertex="1" parent="1">
          <mxGeometry x="1380" y="1330" width="104" height="50" as="geometry" />
        </mxCell>
        <mxCell id="Rm3MgVcvs-Dru-C2N3fW-70" value="" style="endArrow=classic;html=1;rounded=0;exitX=1;exitY=0.5;exitDx=0;exitDy=0;" edge="1" parent="1" source="Rm3MgVcvs-Dru-C2N3fW-41">
          <mxGeometry width="50" height="50" relative="1" as="geometry">
            <mxPoint x="1760" y="1330" as="sourcePoint" />
            <mxPoint x="1940" y="1310" as="targetPoint" />
          </mxGeometry>
        </mxCell>
        <mxCell id="Rm3MgVcvs-Dru-C2N3fW-71" value="Обработанный запрос" style="text;html=1;align=center;verticalAlign=middle;whiteSpace=wrap;rounded=0;" vertex="1" parent="1">
          <mxGeometry x="1750" y="1275" width="150" height="30" as="geometry" />
        </mxCell>
        <mxCell id="Rm3MgVcvs-Dru-C2N3fW-72" value="При работе в данной CRUD системе во всех случаях, кроме добавления новых данных, требуется актуализация этих данных через запрос или, в случае с просто показом, запрос на выборку данных, соответственно шаги 3 и 4 необходимы, и запрос пользователя не будет обрабатываться без актуализации данных" style="shape=note;whiteSpace=wrap;html=1;backgroundOutline=1;darkOpacity=0.05;" vertex="1" parent="1">
          <mxGeometry x="220" y="1170" width="290" height="190" as="geometry" />
        </mxCell>
      </root>
    </mxGraphModel>
  </diagram>
</mxfile>
